<?xml version="1.0" encoding="UTF-8" standalone="no"?>
<svg width="100px" height="100px" viewBox="0 0 100 100" version="1.1" xmlns="http://www.w3.org/2000/svg" xmlns:xlink="http://www.w3.org/1999/xlink" xmlns:sketch="http://www.bohemiancoding.com/sketch/ns">
    <!-- Generator: Sketch 3.5.2 (25235) - http://www.bohemiancoding.com/sketch -->
    <title>Avatar4</title>
    <desc>Created with Sketch.</desc>
    <defs>
        <circle id="path-1" cx="50" cy="50" r="50"></circle>
    </defs>
    <g id="Page-1" stroke="none" stroke-width="1" fill="none" fill-rule="evenodd" sketch:type="MSPage">
        <g id="Avatar4" sketch:type="MSLayerGroup">
            <mask id="mask-2" sketch:name="Mask Copy 2" fill="white">
                <use xlink:href="#path-1"></use>
            </mask>
            <use id="Mask-Copy-2" fill="#94BECC" sketch:type="MSShapeGroup" xlink:href="#path-1"></use>
            <g id="Group-6-Copy" mask="url(#mask-2)" sketch:type="MSShapeGroup">
                <g transform="translate(24.000000, 9.000000)">
                    <path d="M6.99229162,58.9052617 L6.99229162,19.6476223 C6.99229162,9.11958635 15.4970513,0.583756644 25.9867657,0.583756644 C36.4775017,0.583756644 44.9822614,9.11958635 44.9822614,19.6476223 L44.9822614,58.9052617 L6.99229162,58.9052617 Z" id="Fill-591" fill="#424F54"></path>
                    <path d="M25.9868679,0.583859176 L25.9868679,0.583859176 C36.4776039,0.583859176 44.9823636,9.11968888 44.9823636,19.6477248 L44.9823636,58.9053642 L25.9868679,58.9053642 L25.9868679,0.583859176 Z" id="Fill-592" fill="#222C30"></path>
                    <path d="M18.0724866,41.8904053 L33.9020664,41.8904053 L33.9020664,54.5993073 L41.8163455,56.3638914 L44.1874623,56.892959 C41.8439285,64.7530996 34.5865336,70.4826151 25.9928953,70.4856911 L25.9816578,70.4856911 C17.3880195,70.4826151 10.1306246,64.7530996 7.78709078,56.892959 L10.8886464,56.2018901 L18.0724866,54.5993073 L18.0724866,41.8904053 Z" id="Fill-593" fill="#FCDBBD"></path>
                    <path d="M33.9019642,45.1804678 L33.9019642,54.6001275 L44.1873601,56.892754 C42.9277362,61.1201685 40.2460553,64.7303374 36.7001068,67.165484 L18.0723845,48.4707353 L18.0723845,45.1804678 L33.9019642,45.1804678 Z" id="Fill-594" fill="#EDBA8A"></path>
                    <path d="M41.8163455,22.8252067 C40.0684003,22.8252067 38.6504295,24.2483576 38.6504295,26.0026885 C38.6504295,27.7580447 40.0684003,29.1801703 41.8163455,29.1801703 C43.5653123,29.1801703 44.9822614,27.7580447 44.9822614,26.0026885 C44.9822614,24.2483576 43.5653123,22.8252067 41.8163455,22.8252067" id="Fill-595" fill="#EDBA8A"></path>
                    <path d="M41.8163455,24.4133324 C40.9428837,24.4133324 40.2338983,25.1259332 40.2338983,26.002586 C40.2338983,26.8802641 40.9428837,27.5918396 41.8163455,27.5918396 C42.6908289,27.5918396 43.3987927,26.8802641 43.3987927,26.002586 C43.3987927,25.1259332 42.6908289,24.4133324 41.8163455,24.4133324" id="Fill-596" fill="#AD7B4C"></path>
                    <path d="M10.1580033,22.8252067 C8.40903645,22.8252067 6.9920873,24.2483576 6.9920873,26.0026885 C6.9920873,27.7580447 8.40903645,29.1801703 10.1580033,29.1801703 C11.90697,29.1801703 13.3239192,27.7580447 13.3239192,26.0026885 C13.3239192,24.2483576 11.90697,22.8252067 10.1580033,22.8252067" id="Fill-597" fill="#FCDBBD"></path>
                    <path d="M10.1580033,24.4133324 C9.28454144,24.4133324 8.57555607,25.1259332 8.57555607,26.002586 C8.57555607,26.8802641 9.28454144,27.5918396 10.1580033,27.5918396 C11.0324866,27.5918396 11.7404504,26.8802641 11.7404504,26.002586 C11.7404504,25.1259332 11.0324866,24.4133324 10.1580033,24.4133324" id="Fill-598" fill="#AD7B4C"></path>
                    <path d="M41.8163455,19.6478274 L41.8163455,33.945983 C41.8163455,42.6827763 34.6927792,49.8333921 25.9867657,49.8333921 C17.2817739,49.8333921 10.1582076,42.6838017 10.1582076,33.945983 L10.1582076,19.6478274 L32.3185976,19.6478274 L41.8163455,19.6478274 Z" id="Fill-599" fill="#FCDBBD"></path>
                    <path d="M41.8163455,19.6478274 L41.8163455,33.945983 C41.8163455,38.7168197 39.6924541,43.012931 36.3467379,45.9320309 L10.1582076,19.6478274 L32.3185976,19.6478274 L41.8163455,19.6478274 Z" id="Fill-600" fill="#EDBA8A"></path>
                    <path d="M29.054098,41.0957785 C31.0012538,40.0120101 32.3191084,37.9275246 32.3191084,35.5344163 L19.6554446,35.5344163 C19.6554446,37.9275246 20.9732993,40.0120101 22.9204551,41.0957785 L29.054098,41.0957785 Z" id="Fill-601" fill="#222C30"></path>
                    <path d="M25.9868679,41.8904053 C27.0993824,41.8904053 28.1454934,41.6012636 29.0536893,41.0957785 C28.1454934,40.589268 27.0993824,40.3011517 25.9868679,40.3011517 C24.8743534,40.3011517 23.829264,40.589268 22.9200464,41.0957785 C23.829264,41.6012636 24.8743534,41.8904053 25.9868679,41.8904053" id="Fill-602" fill="#DE314E"></path>
                    <path d="M30.7361505,35.5345188 C30.7361505,36.4080956 30.0220571,37.1237724 29.1526817,37.1237724 L22.8208498,37.1237724 C21.9524959,37.1237724 21.2384026,36.4091209 21.2384026,35.5345188 L30.7361505,35.5345188 Z" id="Fill-603" fill="#FFFFFF"></path>
                    <path d="M25.9868679,23.6197309 L25.1961551,22.8251041 L25.9868679,22.0304774 C27.2393406,22.0304774 28.4070211,22.6200392 29.154827,23.6228069 C29.9036545,22.6231151 31.0692919,22.0335533 32.3186998,22.0335533 L42.6071604,22.0335533 C43.0433805,22.0335533 43.3968516,22.3883157 43.3968516,22.8251041 C43.3968516,23.2618925 43.0433805,23.616655 42.6071604,23.616655 L40.2340005,23.616655 L40.2340005,26.002586 C40.2340005,29.2949042 37.5778593,31.9607489 34.297525,31.9607489 C31.0192338,31.9607489 28.362071,29.2928535 28.362071,26.002586 C28.362071,24.6860688 27.298593,23.6197309 25.9868679,23.6197309 L25.9868679,23.6197309 Z M32.3186998,23.6197309 C31.0141258,23.6197309 29.9445182,24.6932461 29.9445182,26.002586 C29.9445182,28.4162008 31.8926956,30.3714953 34.297525,30.3714953 C36.6992895,30.3714953 38.6505317,28.4131248 38.6505317,26.002586 L38.6505317,23.6197309 L32.3186998,23.6197309 Z" id="Fill-604" fill="#990000"></path>
                    <path d="M15.0212956,27.0430857 C14.6576085,27.284037 14.167244,27.1845805 13.9271697,26.8195648 C13.6860738,26.4555745 13.7861899,25.9623932 14.1498769,25.7214419 C15.0580729,25.1154749 16.1205294,24.7935229 17.2105688,24.7935229 C18.3006083,24.7935229 19.3640864,25.1154749 20.2722823,25.7214419 C20.6349478,25.9623932 20.7350638,26.4555745 20.4949896,26.8195648 C20.2538937,27.1845805 19.7635291,27.284037 19.3998421,27.0430857 C18.7480659,26.6083479 17.9941305,26.3827764 17.2105688,26.3827764 C16.4280288,26.3827764 15.6730717,26.6083479 15.0212956,27.0430857" id="Fill-605" fill="#222C30"></path>
                    <path d="M32.5748131,27.0430857 C32.2111261,27.284037 31.7207616,27.1845805 31.4796657,26.8195648 C31.2395914,26.4555745 31.3386859,25.9623932 31.7023729,25.7214419 C32.6095472,25.1154749 33.6730253,24.7935229 34.7630648,24.7935229 C35.8541258,24.7935229 36.9165823,25.1154749 37.8247783,25.7214419 C38.1884653,25.9623932 38.2885814,26.4555745 38.0474855,26.8195648 C37.8063896,27.1845805 37.3170467,27.284037 36.9533596,27.0430857 C36.3005619,26.6083479 35.5456048,26.3827764 34.7630648,26.3827764 C33.9805247,26.3827764 33.2265893,26.6083479 32.5748131,27.0430857" id="Fill-606" fill="#222C30"></path>
                    <path d="M42.6376039,56.5475271 L48.1480752,57.7758663 C49.8500488,58.1562618 51.3139912,59.3661452 51.3139912,62.5426017 L51.3139912,80.0182391 L41.8162433,80.0182391 L41.8162433,73.9503664 C39.7771442,79.0431552 38.6503274,84.5286433 38.6503274,89.5506846 C38.6503274,98.0742104 40.6220014,104.033399 44.0862224,110.077689 C46.3745902,114.068253 48.1470536,118.198262 48.1470536,122.911681 C48.1470536,123.990322 48.0694126,125.049483 47.9212816,126.086086 L47.242944,130.855898 L4.7303831,130.855898 L4.05204551,126.086086 C3.90391456,125.048458 3.82627351,123.990322 3.82627351,122.911681 C3.82627351,118.210566 5.60997446,114.050823 7.88812631,110.077689 C11.3513257,104.033399 13.3240214,98.0742104 13.3240214,89.5506846 C13.3240214,84.5286433 12.1972046,79.0431552 10.1581054,73.9503664 L10.1581054,80.0182391 L0.660357557,80.0182391 L0.660357557,62.5426017 C0.660357557,59.3651199 2.12532157,58.1562618 3.82627351,57.7758663 L9.33674483,56.5475271 C11.5198886,63.6981429 18.1479824,68.8975654 25.9866636,68.8975654 C33.8263664,68.8975654 40.4544602,63.6981429 42.6376039,56.5475271" id="Fill-607" fill="#BA1717"></path>
                    <path d="M44.0865289,110.077484 C45.0090272,111.685193 45.8620571,113.339042 46.5455027,115.063639 L13.0576921,81.4524636 L13.050541,81.3919694 C14.4174321,82.5188015 16.1663989,83.1955159 18.0716694,83.1955159 C20.2875041,83.1955159 22.2888043,82.2829767 23.7261853,80.8106102 C24.3432273,80.1779847 25.1032923,79.8570581 25.98697,79.8570581 C26.8696262,79.8570581 27.6296912,80.1779847 28.2477548,80.8106102 C29.6841142,82.2829767 31.686436,83.1955159 33.9012491,83.1955159 C35.8463617,83.1955159 37.6269979,82.4911177 39.0051265,81.3232726 C39.1461063,81.1817778 39.367792,81.0392577 39.6569027,80.8977628 C38.9979754,83.8260907 38.6496123,86.7605705 38.6496123,89.5504796 C38.6496123,98.0740054 40.6223079,104.033194 44.0865289,110.077484" id="Fill-608" fill="#990000"></path>
                    <path d="M42.6376039,56.5475271 L48.1480752,57.7758663 C49.8500488,58.1562618 51.3139912,59.3661452 51.3139912,62.5426017 L51.3139912,80.0182391 L49.505772,80.0182391 L41.8162433,72.2995934 L35.5600093,66.0215291 C38.9016392,63.8099033 41.4392756,60.4714454 42.6376039,56.5475271" id="Fill-611" fill="#990000"></path>
                    <path d="M19.6554446,23.6197309 L13.3236127,23.6197309 L13.3236127,26.002586 C13.3236127,28.4131248 15.2748549,30.3714953 17.677641,30.3714953 C20.0804272,30.3714953 22.0296262,28.4162008 22.0296262,26.002586 C22.0296262,24.6932461 20.9600186,23.6197309 19.6554446,23.6197309 L19.6554446,23.6197309 Z M25.9872765,23.6197309 C24.6755514,23.6197309 23.613095,24.6860688 23.613095,26.002586 C23.613095,29.2928535 20.9549106,31.9607489 17.677641,31.9607489 C14.3962851,31.9607489 11.7411655,29.2949042 11.7411655,26.002586 L11.7411655,23.616655 L9.36596239,23.616655 C8.93076387,23.616655 8.57831437,23.2618925 8.57831437,22.8251041 C8.57831437,22.3883157 8.93076387,22.0335533 9.36596239,22.0335533 L19.6554446,22.0335533 C20.9048526,22.0335533 22.0715115,22.6231151 22.8193174,23.6217816 C23.5671233,22.6200392 24.7348038,22.0304774 25.9872765,22.0304774 L25.9872765,23.6197309 Z" id="Fill-612" fill="#BA1717"></path>
                    <path d="M25.1986069,26.002586 C25.1986069,25.5657976 25.5510564,25.2110352 25.9872765,25.2110352 C26.422475,25.2110352 26.7749245,25.5657976 26.7749245,26.002586 L26.7749245,29.1800678 C26.7749245,29.6158309 26.422475,29.9746946 25.9872765,29.9746946 L24.4038078,29.9746946 C23.9645229,29.9746946 23.6120734,30.3284317 23.6120734,30.7693214 C23.6120734,31.2071351 23.9665661,31.5659988 24.4038078,31.5659988 L25.9872765,31.5659988 C26.422475,31.5659988 26.7749245,31.9197359 26.7749245,32.3575496 C26.7749245,32.794338 26.422475,33.1491005 25.9872765,33.1491005 L24.4038078,33.1521764 C23.0931042,33.1521764 22.0296262,32.0837879 22.0296262,30.7693214 C22.0296262,29.4558802 23.0941258,28.385441 24.4038078,28.385441 L25.1986069,28.385441 L25.1986069,26.002586 Z" id="Fill-613" fill="#AD7B4C"></path>
                    <path d="M41.8163455,138.79991 C41.8163455,139.239774 42.1708382,139.594537 42.6070583,139.594537 C43.0453216,139.594537 43.3987927,139.239774 43.3987927,138.79991 L43.3987927,135.622428 C43.3987927,135.184614 43.7532853,134.827801 44.190527,134.827801 C44.6277687,134.827801 44.9822614,135.184614 44.9822614,135.622428 L44.9822614,140.389164 C44.9822614,140.826977 45.3367541,141.182765 45.7739958,141.182765 C46.2081727,141.182765 46.5596007,140.833129 46.5647086,140.398391 L46.5647086,141.182765 C46.5647086,141.621604 46.9192013,141.977392 47.356443,141.977392 C47.7936847,141.977392 48.1481774,141.621604 48.1481774,141.182765 L48.1481774,140.389164 C48.1481774,140.826977 48.5026701,141.182765 48.9399118,141.182765 C49.3761319,141.182765 49.7306246,140.826977 49.7306246,140.389164 L49.7306246,138.005283 C49.7306246,138.445148 50.0851173,138.79991 50.522359,138.79991 C50.9596007,138.79991 51.3140933,138.445148 51.3140933,138.005283 L51.3140933,80.0180341 L42.3465521,80.0180341 L43.3987927,92.7279614 L43.3987927,124.500729 L42.8195496,125.665498 C42.1289529,127.051737 41.8163455,128.379533 41.8163455,129.928799 L41.8163455,138.79991 Z" id="Fill-614" fill="#FCDBBD"></path>
                    <path d="M10.1580033,138.79991 C10.1580033,139.239774 9.80351056,139.594537 9.36626886,139.594537 C8.93004876,139.594537 8.57555607,139.239774 8.57555607,138.79991 L8.57555607,135.622428 C8.57555607,135.184614 8.22106339,134.827801 7.78382169,134.827801 C7.34657999,134.827801 6.9920873,135.184614 6.9920873,135.622428 L6.9920873,140.389164 C6.9920873,140.826977 6.63759461,141.182765 6.20035291,141.182765 C5.76719759,141.182765 5.41474808,140.833129 5.40861853,140.398391 L5.40861853,141.182765 C5.40861853,141.621604 5.05514743,141.977392 4.61790573,141.977392 C4.18066404,141.977392 3.82617135,141.621604 3.82617135,141.182765 L3.82617135,140.389164 C3.82617135,140.826977 3.47167866,141.182765 3.03443696,141.182765 C2.59719526,141.182765 2.24372417,140.826977 2.24372417,140.389164 L2.24372417,138.005283 C2.24372417,138.445148 1.88923148,138.79991 1.45198978,138.79991 C1.01474808,138.79991 0.660255398,138.445148 0.660255398,138.005283 L0.660255398,80.0180341 L9.62779661,80.0180341 L8.57453448,92.7279614 L8.57453448,124.500729 L9.15479916,125.665498 C9.84539587,127.051737 10.1580033,128.379533 10.1580033,129.928799 L10.1580033,138.79991 Z" id="Fill-615" fill="#FCDBBD"></path>
                    <path d="M38.6500209,55.6584679 L41.8159368,56.3638914 L41.8159368,111.79193 L38.6500209,111.79193 L38.6500209,55.6584679 Z" id="Fill-620" fill="#799DC9"></path>
                </g>
            </g>
        </g>
    </g>
</svg>